<svg xmlns="http://www.w3.org/2000/svg" width="150" height="50" viewBox="0,0,150,50"><path fill="#333" d="M21.73 29.17L21.60 29.04L21.62 29.06Q19.92 29.06 18.68 30.49L18.58 30.39L18.64 30.45Q17.40 31.87 17.21 33.78L17.24 33.81L17.24 33.81Q17.05 35.90 18.13 36.87L18.01 36.75L18.11 36.85Q19.22 37.84 21.31 37.73L21.21 37.62L21.31 37.73Q23.39 37.56 24.50 36.88L24.48 36.86L24.37 36.75Q25.49 35.63 25.49 34.07L25.66 34.24L25.59 34.16Q25.56 33.76 25.49 33.38L25.56 33.45L25.40 33.29Q25.65 31.79 24.55 30.44L24.38 30.27L24.46 30.35Q23.42 29.06 21.74 29.18ZM21.16 40.13L21.25 40.21L21.25 40.22Q16.82 40.17 15.41 39.41L15.45 39.44L15.39 39.38Q14.35 38.61 14.16 36.90L14.27 37.00L14.32 37.06Q14.26 36.35 14.30 35.63L14.31 35.64L14.31 35.64Q14.41 34.63 14.41 34.17L14.35 34.12L14.31 34.08Q14.84 31.30 15.00 30.61L15.03 30.65L14.94 30.56Q15.44 28.66 16.28 27.26L16.19 27.17L16.32 27.29Q19.03 22.96 24.97 16.60L24.82 16.45L24.81 16.44Q27.60 16.27 29.81 15.47L29.69 15.35L29.70 15.36Q22.82 22.79 19.62 27.01L19.77 27.17L19.76 27.15Q20.78 26.69 22.07 26.69L21.93 26.54L22.02 26.64Q25.30 26.61 26.83 28.55L26.84 28.56L26.87 28.59Q28.25 30.28 28.59 33.82L28.45 33.68L28.41 33.64Q28.60 34.48 28.60 35.08L28.66 35.15L28.48 34.96Q28.47 38.07 26.26 39.14L26.42 39.30L26.31 39.19Q25.07 39.78 21.19 40.16ZM23.46 42.55L23.48 42.56L23.48 42.56Q24.90 42.65 26.88 42.72L26.85 42.70L26.81 42.66Q28.45 42.74 30.01 42.01L29.95 41.95L30.10 42.11Q31.15 41.25 31.15 39.46L31.09 39.40L31.06 39.36Q31.19 39.01 31.02 38.02L30.96 37.95L30.96 37.96Q30.76 36.94 30.76 36.48L30.82 36.54L30.82 36.54Q29.85 31.72 28.25 29.82L28.28 29.85L28.40 29.97Q28.27 29.80 28.12 29.57L28.11 29.57L27.77 29.30L27.69 29.26L27.68 29.25Q27.43 28.85 26.82 27.90L26.76 27.83L26.82 27.89Q25.76 26.80 23.78 26.34L23.79 26.35L23.77 26.33Q25.00 24.74 27.97 21.05L28.12 21.20L32.34 15.90L32.28 15.85Q30.61 16.61 28.22 17.38L28.21 17.37L28.23 17.39Q29.29 16.55 31.08 14.57L30.98 14.47L31.01 14.50Q28.56 15.52 24.68 16.09L24.70 16.11L24.75 16.16Q19.06 22.08 16.09 27.03L16.07 27.01L16.01 26.95Q14.49 29.46 13.92 35.71L13.88 35.66L13.98 35.76Q13.78 36.21 13.85 37.16L14.02 37.33L13.91 37.22Q13.95 38.94 15.06 39.85L15.15 39.94L15.09 39.89Q15.54 40.11 15.50 40.14L15.41 40.05L15.38 40.02Q15.78 40.95 16.58 41.37L16.64 41.43L16.61 41.40Q18.10 42.13 20.04 42.32L20.10 42.38L20.10 42.38Q20.02 42.30 23.53 42.61ZM23.23 31.31L23.23 31.31L23.25 31.33Q23.97 31.37 24.92 31.86L24.85 31.79L24.79 31.73Q25.20 32.75 25.20 33.40L25.10 33.29L25.17 33.37Q25.28 35.15 24.33 36.14L24.51 36.32L24.34 36.15Q23.40 37.00 21.31 37.30L21.19 37.19L21.29 37.28Q19.81 37.25 19.27 36.99L19.24 36.95L19.21 36.93Q19.07 36.52 19.07 36.21L19.16 36.30L18.99 36.13Q18.82 32.91 21.75 31.62L21.72 31.59L21.72 31.59Q22.61 31.38 23.38 31.46Z"/><path fill="#222" d="M101.62 41.05L101.54 40.97L101.51 40.94Q100.15 39.20 98.86 36.12L98.87 36.13L96.79 31.04L96.83 31.08Q95.12 34.97 94.51 36.26L94.58 36.33L94.64 36.39Q93.19 39.32 91.59 41.23L91.55 41.18L91.51 41.14Q91.07 41.08 90.31 41.19L90.42 41.31L90.34 41.23Q90.50 33.97 84.68 28.03L84.66 28.01L84.50 27.85Q82.77 26.05 80.76 24.56L80.83 24.64L80.87 24.68Q82.77 25.28 84.63 25.59L84.59 25.55L84.58 25.53Q90.55 30.40 91.99 36.64L92.07 36.71L92.01 36.65Q92.88 34.78 94.06 31.58L94.20 31.73L94.10 31.63Q95.40 27.83 95.97 26.53L96.07 26.63L97.40 26.55L97.45 26.61Q98.26 28.25 99.44 31.52L99.52 31.61L99.60 31.69Q100.86 35.26 101.50 36.67L101.51 36.68L101.43 36.59Q103.23 30.29 108.72 25.72L108.84 25.85L108.72 25.73Q109.99 25.70 112.73 25.13L112.69 25.09L112.73 25.13Q104.00 31.06 102.82 41.03L102.90 41.11L102.27 41.01L102.19 40.93Q101.80 40.85 101.46 40.88ZM104.57 43.47L106.62 43.65L106.66 43.69Q106.33 42.14 106.33 40.62L106.34 40.63L106.25 40.54Q106.16 37.21 107.57 33.97L107.70 34.11L107.73 34.14Q109.71 29.61 113.82 26.52L113.66 26.36L113.84 26.54Q112.50 26.69 110.63 27.03L110.62 27.02L110.62 27.02Q112.66 25.44 113.96 24.53L113.98 24.55L111.41 24.95L111.32 24.87Q110.21 25.20 108.88 25.35L108.81 25.29L108.86 25.33Q103.78 29.66 101.84 34.68L101.66 34.50L101.82 34.66Q101.17 32.49 99.80 28.23L99.80 28.22L99.66 28.09Q99.41 28.18 99.14 28.18L99.11 28.14L98.64 28.21L98.59 28.16Q98.55 27.93 97.75 26.18L97.66 26.09L95.63 26.11L95.63 26.12Q94.81 29.06 92.71 34.69L92.70 34.68L92.64 34.62Q91.25 30.87 88.17 27.60L88.17 27.60L88.17 27.60Q87.94 27.64 87.64 27.60L87.55 27.51L87.07 27.49L86.96 27.38Q86.31 26.77 84.52 25.17L84.49 25.14L84.51 25.16Q81.26 24.42 79.58 23.92L79.64 23.98L79.61 23.95Q90.36 31.42 89.98 41.74L89.93 41.70L89.93 41.69Q90.09 41.66 90.45 41.62L90.42 41.59L90.51 41.68Q90.78 41.56 90.97 41.56L91.00 41.58L91.05 41.64Q91.05 41.48 91.24 43.58L91.27 43.60L93.12 43.36L93.19 43.43Q95.74 40.58 97.99 34.83L98.03 34.87L97.95 34.79Q99.58 38.78 101.45 41.45L101.47 41.47L101.44 41.44Q101.63 41.29 101.90 41.31L102.02 41.43L101.98 41.39Q102.30 41.46 102.57 41.46L102.46 41.36L104.58 43.47Z"/><path fill="#111" d="M55.07 40.40L55.08 40.41L54.96 40.30Q51.99 36.41 49.36 27.77L49.52 27.93L49.51 27.92Q48.69 25.61 47.89 23.48L48.01 23.60L45.05 32.29L45.06 32.30Q43.35 37.33 40.96 40.57L40.86 40.47L40.86 40.47Q39.96 40.49 38.32 40.64L38.37 40.69L38.47 40.78Q38.60 39.62 38.60 38.36L38.56 38.33L38.55 38.31Q38.49 32.24 35.75 26.11L35.79 26.16L35.80 26.16Q32.74 19.33 26.88 14.35L26.83 14.30L26.72 14.18Q28.89 14.91 31.25 15.44L31.23 15.42L31.38 15.57Q39.97 23.93 41.26 34.90L41.19 34.83L41.24 34.88Q42.84 31.53 44.29 26.16L44.32 26.19L44.29 26.17Q46.41 18.80 46.91 17.40L46.74 17.23L49.04 17.28L49.11 17.35Q49.70 19.28 50.35 21.60L50.44 21.69L51.67 26.12L51.71 26.16Q53.27 31.60 54.68 34.84L54.62 34.78L54.56 34.72Q56.27 23.15 64.19 15.80L64.16 15.77L64.23 15.84Q65.71 15.45 68.68 14.81L68.69 14.81L68.76 14.89Q63.40 19.15 60.35 25.28L60.37 25.30L60.39 25.32Q57.16 31.42 57.16 38.19L57.16 38.19L57.20 38.23Q57.34 39.48 57.42 40.62L57.24 40.45L56.16 40.39L56.25 40.48Q55.55 40.31 54.98 40.31ZM61.29 43.28L61.33 43.31L61.34 43.33Q60.10 39.76 60.21 35.88L60.13 35.80L60.15 35.81Q60.57 24.36 69.93 16.10L69.83 15.99L69.88 16.04Q68.82 16.16 66.87 16.69L66.97 16.79L67.00 16.82Q67.95 15.98 69.85 14.19L69.84 14.18L69.75 14.09Q67.13 14.89 64.20 15.38L64.16 15.35L64.21 15.40Q56.81 22.62 54.91 32.10L54.72 31.91L54.87 32.06Q54.29 30.42 51.44 18.96L51.31 18.83L51.47 18.99Q50.98 19.00 50.03 19.00L50.09 19.05L49.70 17.91L49.76 17.97Q49.60 17.39 49.37 16.89L49.31 16.83L46.46 16.88L46.38 16.80Q45.54 19.23 44.27 24.35L44.35 24.43L44.44 24.52Q43.03 29.51 42.04 31.98L42.13 32.08L42.15 32.09Q40.51 24.14 34.96 17.82L34.90 17.77L35.05 17.91Q34.57 17.85 33.61 17.66L33.51 17.55L33.44 17.48Q32.74 16.66 31.18 15.03L31.21 15.07L31.18 15.03Q27.83 14.27 25.66 13.47L25.67 13.48L25.72 13.53Q31.37 18.19 34.65 24.40L34.72 24.47L34.71 24.46Q38.11 31.03 38.11 38.03L38.11 38.02L38.16 38.07Q38.20 39.68 38.01 41.28L37.91 41.17L38.01 41.28Q38.15 41.19 38.60 41.09L38.55 41.04L38.60 41.09Q39.11 41.04 39.34 41.04L39.33 41.03L39.19 41.92L39.21 41.94Q39.26 42.45 39.34 42.99L39.30 42.95L39.30 42.94Q40.44 42.87 42.72 42.71L42.70 42.70L42.77 42.76Q46.43 37.40 49.17 28.00L49.18 28.01L49.10 27.93Q51.84 36.68 54.81 40.64L54.96 40.79L54.80 40.63Q55.41 40.78 56.25 40.90L56.14 40.79L56.16 40.81Q57.00 41.85 58.07 42.91L58.20 43.05L58.14 42.98Q58.87 42.98 61.26 43.25Z"/><path fill="#333" d="M114.34 47.15L114.19 47.00L114.27 47.08Q113.32 47.27 111.42 47.58L111.51 47.67L111.49 47.64Q112.77 45.46 113.80 44.17L113.81 44.18L113.74 44.11Q115.44 44.36 115.59 44.36L115.64 44.41L115.67 44.44Q115.98 44.52 116.51 44.41L116.55 44.45L116.44 44.34Q117.19 44.33 117.38 44.33L117.37 44.31L117.39 44.34Q119.89 44.01 119.81 41.85L119.82 41.86L119.91 41.95Q119.83 40.42 119.71 34.17L119.66 34.12L119.62 34.08Q119.65 30.60 119.72 26.45L119.66 26.39L121.08 26.21L121.19 26.32Q121.76 26.13 122.45 25.90L122.43 25.89L122.42 25.88Q122.20 30.30 122.24 34.68L122.35 34.79L122.27 34.71Q122.23 39.01 122.77 43.39L122.86 43.49L122.82 43.44Q122.82 43.68 122.82 43.95L122.84 43.96L122.88 44.00Q122.96 45.71 121.28 46.09L121.17 45.98L121.18 46.00Q118.06 46.37 114.21 47.02ZM120.97 22.79L118.93 19.76L118.97 19.80Q119.89 18.28 121.72 15.50L121.83 15.61L121.69 15.47Q122.40 16.41 123.73 18.24L123.86 18.37L120.99 22.81ZM124.13 49.55L124.09 49.51L124.08 49.51Q124.63 49.55 125.39 49.21L125.26 49.08L125.43 49.25Q125.73 48.52 125.73 48.07L125.71 48.05L125.63 47.97Q125.67 47.67 125.56 47.06L125.64 47.14L125.62 47.12Q124.17 40.60 124.17 32.69L124.28 32.80L124.13 32.64Q124.12 29.79 124.28 26.89L124.32 26.94L124.34 26.96Q123.82 27.16 122.68 27.47L122.61 27.40L122.62 27.41Q122.68 26.97 122.71 26.44L122.78 26.51L122.75 25.29L122.90 25.44Q121.20 26.10 119.41 26.14L119.25 25.98L119.42 26.15Q119.31 30.42 119.35 34.00L119.25 33.90L119.42 41.80L119.50 41.87Q119.58 43.86 117.41 43.98L117.40 43.96L117.37 43.93Q117.19 43.98 116.67 44.04L116.65 44.02L116.56 43.92Q116.02 43.95 115.75 43.95L115.78 43.98L115.75 43.95Q115.28 43.93 113.71 43.51L113.84 43.64L113.75 43.55Q113.33 44.19 112.22 45.87L112.21 45.86L110.75 48.24L110.64 48.13Q111.52 47.94 113.16 47.56L113.25 47.65L112.69 48.28L112.21 48.98L112.23 49.00Q114.54 48.87 115.87 48.94L115.91 48.98L115.90 48.98Q118.03 48.97 123.97 49.39ZM121.01 23.59L121.10 23.68L121.28 22.99L121.37 23.08Q121.80 23.58 122.76 25.18L122.72 25.15L122.62 25.05Q124.29 22.07 125.85 18.99L125.83 18.97L125.67 18.81Q124.84 17.37 123.89 16.08L123.80 15.99L123.81 16.00Q123.57 16.18 123.23 16.71L123.21 16.69L123.20 16.68Q122.90 16.15 121.91 14.86L121.99 14.94L121.98 14.93Q120.78 16.51 118.46 19.86L118.48 19.88L118.35 19.75Q119.26 20.96 120.97 23.55Z"/><path fill="#444" d="M71.26 41.18L71.16 41.08L69.43 41.07L69.58 41.22Q66.09 41.12 65.14 38.98L65.13 38.97L65.21 39.05Q66.38 38.02 67.83 36.91L67.70 36.78L67.89 36.97Q68.30 38.98 71.15 38.83L71.13 38.80L71.29 38.96Q71.99 38.83 73.02 38.60L72.96 38.54L72.96 38.54Q73.94 38.08 73.87 37.13L73.85 37.10L73.91 37.17Q73.78 36.01 71.99 35.33L72.04 35.37L68.27 33.88L68.25 33.86Q65.95 32.56 65.61 29.02L65.55 28.96L65.57 28.98Q65.32 26.79 67.49 26.22L67.56 26.29L67.61 26.33Q68.55 26.10 71.52 26.10L71.40 25.98L71.52 26.10Q76.37 26.08 77.29 28.59L77.15 28.46L77.18 28.49Q76.52 29.00 75.80 29.46L75.87 29.54L74.40 30.43L74.42 30.45Q74.06 28.68 70.82 28.45L70.77 28.39L70.72 28.35Q70.15 28.39 69.13 28.81L69.06 28.74L69.07 28.75Q68.51 29.10 68.51 30.21L68.47 30.17L68.49 30.19Q68.96 31.38 70.79 32.07L70.74 32.01L70.78 32.06Q71.86 32.45 74.52 33.55L74.44 33.48L74.51 33.54Q76.27 34.31 76.46 36.86L76.46 36.87L76.39 36.80Q76.50 37.47 76.42 38.46L76.57 38.61L76.57 38.61Q76.36 39.32 75.79 39.96L75.88 40.05L75.87 40.04Q74.27 41.14 71.22 41.14ZM75.94 43.69L76.03 43.78L75.94 43.69Q76.97 43.84 78.34 43.54L78.26 43.46L78.35 43.55Q79.33 42.78 79.14 41.56L79.19 41.61L79.20 41.62Q79.14 41.07 78.84 39.47L78.77 39.40L78.85 39.48Q78.31 36.54 76.52 35.32L76.47 35.27L76.40 35.20Q75.93 33.85 74.67 33.13L74.65 33.11L74.71 33.17Q73.41 32.71 70.93 31.75L70.92 31.74L70.97 31.79Q71.06 31.27 71.32 31.16L71.43 31.26L71.37 31.20Q71.88 30.65 72.53 30.61L72.51 30.59L72.62 30.71Q73.37 30.62 74.13 30.88L74.10 30.84L74.19 31.01L74.26 30.97L74.59 31.11L74.56 31.12L74.53 31.09Q75.64 31.59 75.83 32.84L75.83 32.85L75.85 32.87Q77.07 31.99 78.98 30.32L78.86 30.20L78.96 30.30Q78.74 29.63 77.75 28.45L77.67 28.36L77.79 28.48Q76.64 25.78 71.54 25.66L71.39 25.52L71.44 25.56Q68.36 25.61 66.38 26.18L66.25 26.04L66.25 26.04Q64.82 26.60 65.05 28.69L65.08 28.72L65.12 28.76Q65.29 30.08 66.21 32.17L66.11 32.07L66.09 32.05Q66.65 33.18 67.67 33.90L67.69 33.92L67.66 33.88Q68.47 35.49 69.76 36.18L69.73 36.14L69.60 36.02Q70.68 36.41 71.63 36.79L71.64 36.80L73.52 37.54L73.47 37.49Q73.14 38.61 71.20 38.49L71.28 38.57L71.27 38.57Q70.88 38.67 69.66 38.36L69.65 38.35L69.54 38.09L69.52 38.30L69.51 38.29Q68.46 37.74 67.82 36.25L67.93 36.36L67.82 36.25Q65.85 37.98 64.75 39.12L64.62 39.00L64.71 39.08Q64.93 39.91 65.96 40.71L65.90 40.65L65.86 40.92L65.81 40.86Q67.17 42.92 71.40 43.30L71.52 43.42L71.44 43.34Q72.83 43.58 76.06 43.81Z"/></svg>